nColumns=19
nRows=113
DataType=double
version=3
OpenSimVersion=4.1
endheader
time	ground_force_1_vx	ground_force_1_vy	ground_force_1_vz	ground_force_1_px	ground_force_1_py	ground_force_1_pz	ground_force_1_mx	ground_force_1_my	ground_force_1_mz	ground_force_2_vx	ground_force_2_vy	ground_force_2_vz	ground_force_2_px	ground_force_2_py	ground_force_2_pz	ground_force_2_mx	ground_force_2_my	ground_force_2_mz
0	-27.7577	225.248	9.63777	0.128138	0.006	-0.20071	0	0.16066	0	0	0	0	0.759009	0	-0.302698	0	0	0
0.01	-36.6246	243.609	8.60464	0.128845	0.006	-0.201432	0	0.0208444	0	0	0	0	0.759009	0	-0.302698	0	0	0
0.02	-56.0393	277.162	6.74997	0.131312	0.006	-0.203119	0	-0.0883605	0	0	0	0	0.759009	0	-0.302698	0	0	0
0.03	-74.4331	310.744	6.15561	0.134476	0.006	-0.204426	0	0.378369	0	0	0	0	0.759009	0	-0.302698	0	0	0
0.04	-86.8919	346.885	6.2526	0.137327	0.006	-0.204738	0	1.17117	0	0	0	0	0.759009	0	-0.302698	0	0	0
0.05	-95.0019	383.793	4.13988	0.139828	0.006	-0.203893	0	1.59638	0	0	0	0	0.759009	0	-0.302698	0	0	0
0.06	-99.8634	424.199	-3.30693	0.142435	0.006	-0.201713	0	1.25289	0	0	0	0	0.759009	0	-0.302698	0	0	0
0.07	-101.238	465.715	-17.0762	0.145568	0.006	-0.198314	0	0.281019	0	0	0	0	0.759009	0	-0.302698	0	0	0
0.08	-103.638	503.447	-33.8126	0.149534	0.006	-0.194252	0	-0.678602	0	0	0	0	0.759009	0	-0.302698	0	0	0
0.09	-110.29	535.729	-45.4049	0.154175	0.006	-0.190644	0	-0.792804	0	0	0	0	0.759009	0	-0.302698	0	0	0
0.1	-118.267	565.599	-49.722	0.159106	0.006	-0.187959	0	-0.187398	0	0	0	0	0.759009	0	-0.302698	0	0	0
0.11	-123.245	595.414	-52.7355	0.163612	0.006	-0.185771	0	0.168999	0	0	0	0	0.759009	0	-0.302698	0	0	0
0.12	-123.847	625.593	-56.9071	0.167367	0.006	-0.18383	0	0.103431	0	0	0	0	0.759009	0	-0.302698	0	0	0
0.13	-122.549	652.69	-58.4445	0.170345	0.006	-0.182477	0	0.209469	0	0	0	0	0.759009	0	-0.302698	0	0	0
0.14	-120.163	674.005	-56.4322	0.172509	0.006	-0.181693	0	0.52839	0	0	0	0	0.759009	0	-0.302698	0	0	0
0.15	-115.106	688.429	-53.5317	0.174196	0.006	-0.18118	0	0.699063	0	0	0	0	0.759009	0	-0.302698	0	0	0
0.16	-107.795	693.864	-51.0109	0.175624	0.006	-0.180586	0	0.682014	0	0	0	0	0.759009	0	-0.302698	0	0	0
0.17	-100.463	689.79	-48.4462	0.177055	0.006	-0.179857	0	0.632391	0	0	0	0	0.759009	0	-0.302698	0	0	0
0.18	-93.3539	677.96	-46.1284	0.178459	0.006	-0.179041	0	0.544895	0	0	0	0	0.759009	0	-0.302698	0	0	0
0.19	-85.8435	660.448	-45.0175	0.179992	0.006	-0.177875	0	0.395342	0	0	0	0	0.759009	0	-0.302698	0	0	0
0.2	-78.5562	639.621	-44.9658	0.181935	0.006	-0.176293	0	0.237402	0	0	0	0	0.759009	0	-0.302698	0	0	0
0.21	-71.7912	618.315	-45.5013	0.184195	0.006	-0.17444	0	0.114525	0	0	0	0	0.759009	0	-0.302698	0	0	0
0.22	-65.2326	597.611	-46.1404	0.186605	0.006	-0.172457	0	0.0401581	0	0	0	0	0.759009	0	-0.302698	0	0	0
0.23	-58.5686	577.862	-46.4426	0.189046	0.006	-0.170381	0	-0.0130081	0	0	0	0	0.759009	0	-0.302698	0	0	0
0.24	-52.1037	560.794	-46.9338	0.191687	0.006	-0.168043	0	-0.0441382	0	0	0	0	0.759009	0	-0.302698	0	0	0
0.25	-47.1375	547.404	-48.1405	0.194954	0.006	-0.165435	0	-0.0726036	0	0	0	0	0.759009	0	-0.302698	0	0	0
0.26	-42.9706	535.018	-48.4328	0.198666	0.006	-0.162743	0	-0.0174769	0	0	0	0	0.759009	0	-0.302698	0	0	0
0.27	-39.096	523.388	-47.9033	0.202529	0.006	-0.160037	0	0.0351849	0	0	0	0	0.759009	0	-0.302698	0	0	0
0.28	-35.2407	513.416	-46.8838	0.206335	0.006	-0.157384	0	0.0126257	0	0	0	0	0.759009	0	-0.302698	0	0	0
0.29	-31.3841	506.921	-45.1833	0.210655	0.006	-0.154755	0	-0.0001543	0	0	0	0	0.759009	0	-0.302698	0	0	0
0.3	-28.4764	503.417	-43.6386	0.215573	0.006	-0.152019	0	-0.0486515	0	0	0	0	0.759009	0	-0.302698	0	0	0
0.31	-26.1573	500.797	-43.1113	0.220386	0.006	-0.149124	0	-0.155284	0	0	0	0	0.759009	0	-0.302698	0	0	0
0.32	-23.9373	498.648	-43.4025	0.224985	0.006	-0.14622	0	-0.249079	0	0	0	0	0.759009	0	-0.302698	0	0	0
0.33	-21.6122	497.26	-43.9468	0.229382	0.006	-0.143493	0	-0.336085	0	0	0	0	0.759009	0	-0.302698	0	0	0
0.34	-19.0145	497.077	-44.6948	0.233478	0.006	-0.140975	0	-0.42934	0	0	0	0	0.759009	0	-0.302698	0	0	0
0.35	-16.4984	498.434	-45.422	0.237183	0.006	-0.138689	0	-0.493465	0	0	0	0	0.759009	0	-0.302698	0	0	0
0.36	-14.0935	501.025	-45.9877	0.240506	0.006	-0.1367	0	-0.587714	0	0	0	0	0.759009	0	-0.302698	0	0	0
0.37	-11.1457	505.127	-46.4147	0.243427	0.006	-0.135168	0	-0.714559	0	0	0	0	0.759009	0	-0.302698	0	0	0
0.38	-7.62457	510.077	-46.773	0.245936	0.006	-0.134113	0	-0.842651	0	0	0	0	0.759009	0	-0.302698	0	0	0
0.39	-3.51483	514.801	-47.0705	0.248119	0.006	-0.133408	0	-1.00619	0	0	0	0	0.759009	0	-0.302698	0	0	0
0.4	0.742546	520.532	-47.3364	0.250287	0.006	-0.13301	0	-1.21485	0	0	0	0	0.759009	0	-0.302698	0	0	0
0.41	4.82925	528.678	-47.9754	0.252647	0.006	-0.132901	0	-1.42649	0	0	0	0	0.759009	0	-0.302698	0	0	0
0.42	8.66485	539.219	-49.16	0.255089	0.006	-0.132994	0	-1.60128	0	0	0	0	0.759009	0	-0.302698	0	0	0
0.43	12.2129	551.638	-50.4921	0.257701	0.006	-0.133159	0	-1.76559	0	0	0	0	0.759009	0	-0.302698	0	0	0
0.44	15.494	565.239	-51.8693	0.260632	0.006	-0.133432	0	-1.95549	0	0	0	0	0.759009	0	-0.302698	0	0	0
0.45	18.8625	579.855	-53.2816	0.26376	0.006	-0.133793	0	-2.1797	0	0	0	0	0.759009	0	-0.302698	0	0	0
0.46	23.0073	595.756	-54.5323	0.266934	0.006	-0.134113	0	-2.40383	0	0	0	0	0.759009	0	-0.302698	0	0	0
0.47	28.0152	612.617	-55.7213	0.27041	0.006	-0.134221	0	-2.67092	0	0	0	0	0.759009	0	-0.302698	0	0	0
0.48	32.8406	630.356	-56.9735	0.274359	0.006	-0.134069	0	-2.96077	0	0	0	0	0.759009	0	-0.302698	0	0	0
0.49	37.1593	648.72	-57.9237	0.27875	0.006	-0.133711	0	-3.20954	0	0	0	0	0.759009	0	-0.302698	0	0	0
0.5	41.4249	665.968	-58.7912	0.283431	0.006	-0.133095	0	-3.38243	0	0	0	0	0.759009	0	-0.302698	0	0	0
0.51	45.9772	680.834	-59.974	0.288432	0.006	-0.132162	0	-3.43922	0	0	0	0	0.759009	0	-0.302698	0	0	0
0.52	51.8054	693.219	-60.8176	0.293626	0.006	-0.130998	0	-3.42242	0	0	0	0	0.759009	0	-0.302698	0	0	0
0.53	59.8525	702.861	-61.0604	0.298535	0.006	-0.129635	0	-3.34526	0	0	0	0	0.759009	0	-0.302698	0	0	0
0.54	70.9403	710.859	-60.5043	0.302752	0.006	-0.128331	0	-3.24113	0	0	0	0	0.759009	0	-0.302698	0	0	0
0.55	84.6617	717.365	-59.4073	0.306361	0.006	-0.127202	0	-3.10999	0	0	0	0	0.759009	0	-0.302698	0	0	0
0.56	98.8543	720.55	-58.502	0.309613	0.006	-0.126268	0	-2.89801	0	8.07759	26.8986	-5.05192	0.763103	0.0042	-0.30631	0	0.697168	0
0.57	111.496	717.961	-57.7574	0.312721	0.006	-0.125423	0	-2.62582	0	19.0516	88.2275	-12.0902	0.77658	0.006	-0.315295	0	1.07706	0
0.58	122.183	707.227	-56.5817	0.315826	0.006	-0.124616	0	-2.35719	0	6.9001	124.065	-13.3166	0.781328	0.006	-0.314366	0	1.1029	0
0.59	131.484	686.794	-54.1716	0.319036	0.006	-0.123903	0	-2.11443	0	-7.20805	143.494	-16.0251	0.784982	0.006	-0.311032	0	0.861532	0
0.6	138.176	656.947	-50.5149	0.322572	0.006	-0.123253	0	-1.91564	0	-15.2462	162.758	-20.4032	0.788936	0.006	-0.308602	0	0.267373	0
0.61	143.258	618.695	-45.8227	0.326191	0.006	-0.122697	0	-1.71908	0	-24.8053	177.347	-23.0423	0.792555	0.006	-0.307397	0	-0.52325	0
0.62	147.192	571.191	-40.1199	0.329661	0.006	-0.122293	0	-1.56866	0	-34.2143	194.376	-26.5136	0.79818	0.006	-0.307623	0	-1.2488	0
0.63	148.294	512.489	-34.0292	0.333172	0.006	-0.12199	0	-1.4458	0	-47.0569	230.808	-27.0791	0.809154	0.006	-0.311376	0	-1.51035	0
0.64	144.699	441.479	-27.01	0.337153	0.006	-0.121686	0	-1.29059	0	-63.5902	291.544	-19.111	0.821636	0.006	-0.317776	0	-0.881107	0
0.65	131.674	362.962	-19.6624	0.342092	0.006	-0.121434	0	-1.15031	0	-76.2484	360.168	-5.0536	0.8304	0.006	-0.323692	0	0.254044	0
0.66	108.461	283.766	-12.7659	0.348144	0.006	-0.121301	0	-1.08199	0	-85.0855	418.632	8.47631	0.83634	0.006	-0.327897	0	0.876923	0
0.67	79.1241	208.97	-7.60756	0.355247	0.006	-0.121324	0	-0.934883	0	-92.5766	461.482	18.328	0.840532	0.006	-0.330501	0	0.924683	0
0.68	51.2859	140.885	-4.04356	0.362965	0.006	-0.12093	0	-0.645773	0	-97.8519	498.76	28.4039	0.843396	0.006	-0.332674	0	1.09416	0
0.69	28.2526	84.4123	-2.04331	0.371249	0.006	-0.119317	0	-0.264331	0	-100.372	538.589	40.4996	0.845238	0.006	-0.33454	0	1.50792	0
0.7	10.1425	43.5162	-1.67756	0.380381	0.006	-0.116063	0	0.0312625	0	-100.789	579.252	50.9486	0.846395	0.006	-0.335882	0	1.81547	0
0.71	0.335182	8.36578	-0.635765	0.396723	0.0021	-0.112457	0	0.0416693	0	-99.5834	617.055	57.1509	0.847121	0.006	-0.336682	0	1.94387	0
0.72	0	0	0	0.423537	0	-0.113812	0	0	0	-96.9806	650.963	59.9177	0.847621	0.006	-0.337046	0	2.05987	0
0.73	0	0	0	0.450758	0	-0.115504	0	0	0	-93.0647	679.967	60.1306	0.848094	0.006	-0.337082	0	2.1568	0
0.74	0	0	0	0.477979	0	-0.117196	0	0	0	-87.8514	698.464	58.0958	0.848538	0.006	-0.33686	0	2.19164	0
0.75	0	0	0	0.5052	0	-0.118889	0	0	0	-81.7839	700.926	55.1497	0.849109	0.006	-0.336689	0	2.28805	0
0.76	0	0	0	0.532421	0	-0.120581	0	0	0	-75.3851	687.87	52.0273	0.849984	0.006	-0.336645	0	2.41034	0
0.77	0	0	0	0.559642	0	-0.122273	0	0	0	-68.8376	663.682	48.883	0.851259	0.006	-0.336677	0	2.50281	0
0.78	0	0	0	0.586862	0	-0.123965	0	0	0	-62.6474	633.966	46.3519	0.852746	0.006	-0.336793	0	2.59013	0
0.79	0	0	0	0.614083	0	-0.125657	0	0	0	-57.2628	603.683	44.2518	0.854264	0.006	-0.336843	0	2.67222	0
0.8	0	0	0	0.641304	0	-0.127349	0	0	0	-52.1065	576.201	42.3654	0.85597	0.006	-0.336988	0	2.7923	0
0.81	0	0	0	0.668525	0	-0.129041	0	0	0	-47.2302	553.092	40.6512	0.858107	0.006	-0.337414	0	2.88838	0
0.82	0	0	0	0.695745	0	-0.130733	0	0	0	-42.5556	534.032	38.7406	0.860597	0.006	-0.337939	0	2.96516	0
0.83	0	0	0	0.722966	0	-0.132425	0	0	0	-37.8193	517.336	36.6345	0.863368	0.006	-0.338508	0	3.07411	0
0.84	0	0	0	0.750187	0	-0.134117	0	0	0	-33.2767	502.042	34.7702	0.866415	0.006	-0.339203	0	3.1867	0
0.85	0	0	0	0.777408	0	-0.135809	0	0	0	-29.0743	489.164	33.3134	0.869665	0.006	-0.340066	0	3.28103	0
0.86	0	0	0	0.804629	0	-0.137501	0	0	0	-25.502	480.322	32.5055	0.873027	0.006	-0.341036	0	3.3861	0
0.87	0	0	0	0.831849	0	-0.139194	0	0	0	-22.4884	475.53	32.4775	0.876521	0.006	-0.342138	0	3.49351	0
0.88	0	0	0	0.85907	0	-0.140886	0	0	0	-19.5208	474.289	32.8356	0.880364	0.006	-0.343503	0	3.57007	0
0.89	0	0	0	0.886291	0	-0.142578	0	0	0	-16.9711	476.007	33.1558	0.884692	0.006	-0.34494	0	3.69107	0
0.9	0	0	0	0.913512	0	-0.14427	0	0	0	-14.8299	479.473	33.2633	0.889359	0.006	-0.346416	0	3.909	0
0.91	0	0	0	0.940733	0	-0.145962	0	0	0	-12.4857	484.854	33.4171	0.894028	0.006	-0.348003	0	4.16351	0
0.92	0	0	0	0.967953	0	-0.147654	0	0	0	-9.70235	493.006	33.9003	0.898426	0.006	-0.349563	0	4.44442	0
0.93	0	0	0	0.995174	0	-0.149346	0	0	0	-6.32746	502.944	34.8075	0.902609	0.006	-0.351306	0	4.69273	0
0.94	0	0	0	1.0224	0	-0.151038	0	0	0	-2.4704	514.391	36.4635	0.906801	0.006	-0.353198	0	4.88363	0
0.95	0	0	0	1.04962	0	-0.15273	0	0	0	1.14552	527.156	38.9256	0.911172	0.006	-0.355145	0	5.02173	0
0.96	0	0	0	1.07684	0	-0.154423	0	0	0	4.05416	539.298	41.9636	0.915783	0.006	-0.357115	0	5.06805	0
0.97	0	0	0	1.10406	0	-0.156115	0	0	0	6.39395	550.676	45.1533	0.920539	0.006	-0.358901	0	5.06004	0
0.98	0	0	0	1.13128	0	-0.157807	0	0	0	8.52971	562.786	48.4119	0.925324	0.006	-0.360639	0	5.04947	0
0.99	0	0	0	1.1585	0	-0.159499	0	0	0	11.0937	575.813	51.4055	0.930102	0.006	-0.362402	0	5.05674	0
1	0	0	0	1.18572	0	-0.161191	0	0	0	14.8677	590.815	53.2994	0.934539	0.006	-0.363917	0	5.09744	0
1.01	0	0	0	1.21294	0	-0.162883	0	0	0	20.371	607.694	53.9307	0.938489	0.006	-0.365185	0	5.17842	0
1.02	0	0	0	1.24016	0	-0.164575	0	0	0	27.5013	622.499	54.7171	0.942324	0.006	-0.36656	0	5.21617	0
1.03	0	0	0	1.26738	0	-0.166267	0	0	0	35.6872	633.808	56.1799	0.946341	0.006	-0.368251	0	5.15214	0
1.04	0	0	0	1.2946	0	-0.167959	0	0	0	43.9122	642.563	58.4505	0.9506	0.006	-0.370351	0	4.95552	0
1.05	0	0	0	1.32182	0	-0.169651	0	0	0	51.5093	648.117	61.9244	0.955169	0.006	-0.372798	0	4.55885	0
1.06	0	0	0	1.34904	0	-0.171343	0	0	0	58.1407	649.934	66.1671	0.959981	0.006	-0.375211	0	4.02327	0
1.07	0	0	0	1.37627	0	-0.173035	0	0	0	64.8864	649.868	69.1755	0.964484	0.006	-0.377229	0	3.58561	0
1.08	0	0	0	1.40349	0	-0.174728	0	0	0	73.2182	650.541	70.0342	0.968168	0.006	-0.378574	0	3.32614	0
1.09	0	0	0	1.43071	0	-0.17642	0	0	0	82.389	650.572	69.9167	0.971143	0.006	-0.379453	0	3.17644	0
1.1	5.31501	23.987	2.57544	1.44946	0.0036	-0.178816	0	-0.0229149	0	92.2551	646.677	68.7653	0.973731	0.006	-0.380197	0	3.09371	0
1.11	13.4054	106.479	10.8844	1.44036	0.006	-0.182358	0	-0.143788	0	101.853	636.045	66.5201	0.976378	0.006	-0.38078	0	3.08273	0
1.12	-0.229312	180.372	12.3628	1.44049	0.006	-0.183773	0	-0.444423	0	109.472	615.733	63.6388	0.979388	0.006	-0.381275	0	3.08247	0
